<?xml version="1.0" encoding="UTF-8" standalone="no"?>
<!-- Created with Inkscape (http://www.inkscape.org/) -->

<svg
   width="180"
   height="180"
   viewBox="0 0 180 180"
   version="1.1"
   id="svg5"
   inkscape:version="1.1.2 (0a00cf5339, 2022-02-04)"
   sodipodi:docname="logo.svg"
   xmlns:inkscape="http://www.inkscape.org/namespaces/inkscape"
   xmlns:sodipodi="http://sodipodi.sourceforge.net/DTD/sodipodi-0.dtd"
   xmlns="http://www.w3.org/2000/svg"
   xmlns:svg="http://www.w3.org/2000/svg">
  <sodipodi:namedview
     id="namedview7"
     pagecolor="#ffffff"
     bordercolor="#666666"
     borderopacity="1.0"
     inkscape:pageshadow="2"
     inkscape:pageopacity="0.0"
     inkscape:pagecheckerboard="0"
     inkscape:document-units="px"
     showgrid="false"
     inkscape:zoom="3.0719861"
     inkscape:cx="76.823264"
     inkscape:cy="119.95497"
     inkscape:window-width="1859"
     inkscape:window-height="1016"
     inkscape:window-x="0"
     inkscape:window-y="0"
     inkscape:window-maximized="1"
     inkscape:current-layer="layer1" />
  <defs
     id="defs2" />
  <g
     inkscape:label="Camada 1"
     inkscape:groupmode="layer"
     id="layer1">
    <rect
       style="fill:#000000;fill-rule:evenodd"
       id="rect31"
       width="168.64929"
       height="170.49973"
       x="5.7436862"
       y="5.3534608" />
    <ellipse
       style="fill:#000000"
       id="path431"
       cx="11.418552"
       cy="10.74962"
       rx="9.4043846"
       ry="9.2823992" />
    <ellipse
       style="fill:#000000"
       id="path431-3"
       cx="9.5838346"
       cy="169.51892"
       rx="9.4043846"
       ry="9.2823992" />
    <ellipse
       style="fill:#000000"
       id="path431-6"
       cx="168.91048"
       cy="170.14008"
       rx="9.4043846"
       ry="9.2823992" />
    <ellipse
       style="fill:#000000"
       id="path431-7"
       cx="169.12791"
       cy="11.062665"
       rx="9.4043846"
       ry="9.2823992" />
    <text
       xml:space="preserve"
       style="font-style:normal;font-weight:normal;font-size:64.4477px;line-height:1.25;font-family:sans-serif;fill:#ffffff;fill-opacity:1;stroke:none;stroke-width:1.61119"
       x="10.828015"
       y="63.183117"
       id="text7696"
       transform="scale(0.96201429,1.0394856)"><tspan
         sodipodi:role="line"
         id="tspan7694"
         x="10.828015"
         y="63.183117"
         style="stroke-width:1.61119">L</tspan></text>
    <text
       xml:space="preserve"
       style="font-size:61.1517px;line-height:1.25;font-family:'Liberation Sans';-inkscape-font-specification:'Liberation Sans';fill:#ffffff;stroke-width:1.52879"
       x="62.325672"
       y="80.90699"
       id="text20124"
       transform="scale(0.76919532,1.3000599)"><tspan
         sodipodi:role="line"
         id="tspan20122"
         x="62.325672"
         y="80.90699"
         style="stroke-width:1.52879">O</tspan></text>
    <text
       xml:space="preserve"
       style="font-size:81.8339px;line-height:1.25;font-family:'Liberation Sans';-inkscape-font-specification:'Liberation Sans';fill:#ffffff;stroke-width:2.04585"
       x="75.526947"
       y="123.96131"
       id="text27994"
       transform="scale(1.0302021,0.97068334)"><tspan
         sodipodi:role="line"
         id="tspan27992"
         x="75.526947"
         y="123.96131"
         style="font-style:normal;font-variant:normal;font-weight:normal;font-stretch:normal;font-family:'Noto Serif CJK HK';-inkscape-font-specification:'Noto Serif CJK HK';stroke-width:2.04585">g</tspan></text>
    <text
       xml:space="preserve"
       style="font-size:135.528px;line-height:1.25;font-family:'Liberation Sans';-inkscape-font-specification:'Liberation Sans';stroke-width:3.38819"
       x="157.2601"
       y="135.96169"
       id="text40044"
       transform="scale(0.78717396,1.2703672)"><tspan
         sodipodi:role="line"
         id="tspan40042"
         x="157.2601"
         y="135.96169"
         style="font-style:normal;font-variant:normal;font-weight:normal;font-stretch:normal;font-family:Rekha;-inkscape-font-specification:Rekha;fill:#ffffff;stroke-width:3.38819">o</tspan></text>
    <path
       style="fill:none;stroke:#000000;stroke-width:1px;stroke-linecap:butt;stroke-linejoin:miter;stroke-opacity:1"
       d="M 9.5571314,74.942609 C 23.475753,97.383303 23.081566,111.99239 23.081566,111.99239 l 29.393647,3.82489 c 0,0 -23.826707,-1.28302 3.509537,14.90281 27.336244,16.18584 7.242871,15.19401 27.221802,16.30028 19.978928,1.10627 5.779293,-6.18111 24.498098,5.97384 18.7188,12.15495 -14.593827,17.87957 9.61689,16.73134 24.21073,-1.14823 21.7248,9.25577 21.7248,9.25577"
       id="path44545" />
    <path
       style="fill:#ffffff"
       id="path44646"
       d="m 11.241137,76.598855 c 1.338705,1.6759 3.080759,2.939003 5.046436,3.793906 0.808528,0.351641 1.648778,0.625305 2.473167,0.937958 4.794177,1.694674 9.8071,2.629278 14.644908,4.170919 0.387715,0.190093 0.798891,0.338382 1.163145,0.570281 1.712842,1.090468 2.197842,3.051239 2.558598,4.909968 0.306174,1.946722 0.207601,3.920476 0.285048,5.881376 0.128504,1.232602 0.02935,2.489286 0.156069,3.720697 0.03785,0.36785 0.278382,1.60625 0.346207,1.96724 0.733837,3.00459 2.344983,4.58076 4.641237,6.50696 2.330539,1.72761 4.764244,3.31786 7.268871,4.7808 2.299298,1.3125 4.584621,2.65034 6.830973,4.05183 1.142702,0.73343 2.312713,1.45262 3.119687,2.56452 0.735873,1.24338 0.855831,2.69854 1.136443,4.08629 0.39932,2.02859 0.914094,4.01426 1.688744,5.93159 1.364686,3.02276 3.727967,4.68807 6.447858,6.41318 3.079748,1.76563 6.366961,3.11287 9.557073,4.656 1.838503,0.88696 3.568628,1.97118 5.162396,3.24412 0.862091,0.70072 1.391513,1.175 1.77309,2.22158 0.606039,1.50342 1.159508,3.02715 1.779429,4.52468 0.631568,1.67038 1.263613,3.34029 2.122394,4.90884 1.100708,1.77262 2.785675,2.98408 4.556347,4.01721 2.469999,1.17921 5.172866,1.74373 7.834813,2.3101 1.92622,0.31657 3.78792,0.89595 5.66768,1.40374 2.3463,0.59246 4.68078,1.22271 7.05226,1.70752 2.00763,0.38609 3.94126,1.04288 5.86224,1.72675 1.43516,0.55103 2.8076,1.2536 4.09123,2.09785 0.86308,0.66254 1.74813,1.30822 2.54686,2.04907 0.50636,0.54132 0.85203,1.20313 1.17645,1.86296 0.20814,0.45506 0.40128,0.92173 0.22782,1.41235 -0.166,0.2922 -0.37392,0.57075 -0.65295,0.76505 -0.064,0.0446 -0.2706,0.15545 -0.20334,0.11592 1.32221,-0.77714 2.64548,-1.5525 3.96822,-2.32874 -0.28678,0.18566 -0.61606,0.22468 -0.94689,0.26337 0,0 -3.92763,2.89185 -3.92763,2.89185 v 0 c 0.35681,-0.004 0.71502,-0.0109 1.06428,-0.0942 1.31607,-0.76488 4.52314,-1.65413 5.0967,-3.74738 0.0544,-0.59913 -0.1311,-1.14796 -0.39338,-1.6839 -0.34881,-0.71352 -0.74055,-1.41989 -1.27947,-2.00888 -0.81769,-0.7611 -1.73377,-1.4111 -2.61265,-2.09837 -1.30525,-0.88944 -2.73031,-1.58166 -4.19304,-2.17371 -1.94414,-0.69081 -3.89117,-1.37292 -5.92199,-1.77028 -2.36566,-0.45359 -4.69547,-1.05586 -7.01894,-1.68866 -1.89158,-0.52757 -3.76508,-1.13053 -5.7173,-1.40501 -2.62228,-0.53994 -5.29092,-1.05702 -7.730933,-2.19749 -1.704691,-0.98193 -3.335924,-2.10249 -4.373229,-3.82344 -0.846388,-1.55149 -1.522379,-3.18065 -2.131766,-4.83894 -0.590666,-1.50886 -1.140029,-3.03315 -1.702339,-4.55275 -0.127324,-0.33679 -0.220056,-0.63084 -0.410765,-0.93996 -0.375763,-0.60908 -1.017309,-1.01517 -1.532309,-1.48858 -1.644726,-1.27683 -3.407259,-2.38698 -5.287288,-3.28789 -3.198044,-1.52622 -6.550819,-2.73041 -9.597878,-4.5653 -0.532747,-0.3337 -1.080405,-0.6447 -1.598241,-1.0011 -1.959973,-1.34895 -3.614217,-3.02952 -4.593342,-5.22085 -0.747776,-1.9003 -1.267608,-3.8577 -1.613701,-5.87183 -0.280959,-1.46215 -0.435926,-2.97449 -1.20738,-4.28335 -0.868895,-1.21957 -2.018304,-1.91818 -3.287283,-2.68492 -2.272756,-1.37284 -4.566629,-2.71099 -6.863337,-4.04317 -2.486473,-1.45347 -4.94046,-2.97268 -7.245955,-4.70316 -2.258159,-1.86175 -3.746615,-3.30938 -4.413601,-6.25797 -0.123058,-0.684512 -0.236,-1.222816 -0.297447,-1.915178 -0.109317,-1.231733 -0.07122,-2.477248 -0.172026,-3.709929 -0.05434,-1.983509 0.01576,-3.979921 -0.340889,-5.942365 -0.423013,-1.981069 -0.986814,-4.092292 -2.805169,-5.267509 -0.387139,-0.250211 -0.828224,-0.404937 -1.242336,-0.607405 -4.893679,-1.427673 -9.946034,-2.287867 -14.739308,-4.064908 -0.789031,-0.316121 -1.593272,-0.596646 -2.367093,-0.948362 -1.862105,-0.846363 -3.553533,-2.056268 -4.741925,-3.736223 0,0 -4.183553,2.485264 -4.183553,2.485264 z" />
    <path
       style="fill:#ffffff"
       id="path44652"
       d="m 94.008087,15.355711 c -1.524071,-0.533831 -3.158328,-0.689643 -4.752808,-0.860403 -0.865358,-0.09267 -1.731076,-0.187614 -2.599686,-0.241921 -0.893917,-0.05589 -1.79122,-0.13773 -2.685529,-0.08852 -0.938183,0.05163 -1.861138,0.259948 -2.791708,0.389921 -4.77518,1.717955 -10.150755,4.450663 -12.716139,9.075698 -1.170279,2.109853 -1.064934,2.674651 -1.461275,5.004207 0.07312,1.895487 -0.106329,3.196513 0.872993,4.929038 1.204356,2.130632 3.066734,3.383093 5.311518,4.312647 4.016664,1.663281 7.390755,1.923386 11.682192,2.616605 8.869894,1.006488 17.832835,0.691578 26.568755,-1.190823 4.66397,-1.004986 6.72474,-1.809523 11.16843,-3.276448 5.98188,-2.234424 11.66078,-5.162391 17.41298,-7.910328 3.30229,-1.577567 4.18981,-1.963883 7.44513,-3.444975 3.97746,-1.6753 8.02106,-3.421312 12.3001,-4.181038 0.48464,-0.08605 0.97698,-0.120828 1.46548,-0.181241 1.78536,-0.08425 3.49962,0.24446 5.07901,1.068246 0,0 4.0448,-2.646478 4.0448,-2.646478 v 0 c -1.65911,-0.900606 -3.45816,-1.266478 -5.35109,-1.22926 -0.50844,0.05405 -1.02144,0.07527 -1.5253,0.162158 -0.58757,0.101317 -1.16513,0.254942 -1.7431,0.401424 -3.74078,0.948076 -7.34697,2.317911 -10.86342,3.901163 -2.836,1.297551 -4.66629,2.120807 -7.50829,3.481504 -5.79434,2.774224 -11.50222,5.751744 -17.50967,8.055665 -4.54315,1.545546 -6.44769,2.323296 -11.22081,3.39205 -8.73265,1.955339 -17.611805,2.335032 -26.495413,1.305646 -4.341562,-0.743264 -7.283589,-0.946164 -11.292972,-2.689466 -2.091815,-0.909533 -3.854774,-2.130264 -4.966931,-4.144621 -0.930507,-1.685349 -0.736783,-2.884689 -0.785277,-4.72334 0.159612,-0.825932 0.223656,-1.676222 0.478837,-2.477797 0.525289,-1.650043 1.459296,-3.17531 2.615896,-4.454819 0.624167,-0.690496 1.628147,-1.061669 2.058105,-1.887202 0.229924,-0.441461 -1.834999,0.772541 -1.376573,0.578637 0.899194,-0.380337 1.799252,-0.758627 2.698878,-1.137941 0.909836,-0.148423 1.80986,-0.381403 2.729507,-0.445267 0.884121,-0.0614 1.773302,0.01543 2.657799,0.07115 1.952608,0.123008 4.331457,0.373324 6.236534,0.887431 0.274097,0.07397 0.531548,0.199646 0.797322,0.299469 0,0 4.021725,-2.720772 4.021725,-2.720772 z" />
  </g>
</svg>
